inDegrees=yes
name=ik_S51_A04_T02
DataType=double
version=3
OpenSimVersion=4.3-2021-08-27-4bc7ad9
endheader
time	pelvis_tilt	pelvis_list	pelvis_rotation	pelvis_tx	pelvis_ty	pelvis_tz	hip_flexion_r	hip_adduction_r	hip_rotation_r	knee_angle_r	knee_angle_r_beta	ankle_angle_r	subtalar_angle_r	mtp_angle_r	hip_flexion_l	hip_adduction_l	hip_rotation_l	knee_angle_l	knee_angle_l_beta	ankle_angle_l	subtalar_angle_l	mtp_angle_l	lumbar_extension	lumbar_bending	lumbar_rotation	arm_flex_r	arm_add_r	arm_rot_r	elbow_flex_r	pro_sup_r	wrist_flex_r	wrist_dev_r	arm_flex_l	arm_add_l	arm_rot_l	elbow_flex_l	pro_sup_l	wrist_flex_l	wrist_dev_l
0	0	0	0	0	0.9399999999999999	0	0	0	0	0	0	0	0	0	0	0	0	0	0	0	0	0	0	0	0	0	0	0	0	89.99999999963507	0	0	0	0	0	0	89.99999999869995	0	0
0.02	19.16873884130135	7.331985153084147	29.82105648972678	0	0.9399999999999999	0	40.84958161423915	-42.54303568994361	5.074733364137557	63.79367078344821	1.113409597104482	0	0	0	53.9378836537571	-7.881547427914076	-14.90130316319973	71.42803103588241	1.246654319792844	0	0	0	0	0	0	2.350072591732655	-2.350072591732657	0.4309929766697179	13.6352917664321	89.56900704843126	0	0	2.350072591732655	-2.350072591732657	0.4309929766697179	13.6352917664321	89.56900704757703	0	0
0.04	19.21382702508467	7.309691904611986	29.80066058549481	0	0.9399999999999999	0	40.77053521637899	-42.46522792295467	5.033226607349192	63.82543107941317	1.113963918840478	0	0	0	53.9133377423034	-7.972866690972501	-14.97809317772413	71.40864132736445	1.246315905538204	0	0	0	0	0	0	2.423720541019732	-2.423720541019734	0.4452551799973425	14.08072023460457	89.55474484595408	0	0	2.423720541019732	-2.423720541019734	0.4452551799973425	14.08072023460457	89.55474484510253	0	0
0.06	19.22775057030338	7.325426773709913	29.8044720414217	0	0.9399999999999999	0	40.86707795450048	-42.40405844877031	4.982475749691777	63.9284924179716	1.115762678529835	0	0	0	53.90685679570971	-7.98858323235871	-15.13850607592063	71.4683352019691	1.247357760193327	0	0	0	0	0	0	2.427414490679095	-2.427414490679097	0.445971751725579	14.10545476950434	89.55402827426862	0	0	2.427414490679095	-2.427414490679097	0.445971751725579	14.10545476950434	89.55402827341723	0	0
0.08	19.28188708841443	7.331105359512839	29.73711848005026	0	0.9399999999999999	0	41.05575630847976	-42.30856214961798	5.08382154603374	64.14281896063534	1.119503382373734	0	0	0	53.86584771674205	-8.048944138077706	-15.15340198270371	71.51143416853938	1.248109979064186	0	0	0	0	0	0	2.435646131183795	-2.435646131183796	0.4475684858716683	14.16049297421557	89.55243154021788	0	0	2.435646131183795	-2.435646131183796	0.4475684858716683	14.16049297421557	89.55243153936671	0	0
0.1	19.29644385888997	7.341303604414592	29.73417019085258	0	0.9399999999999999	0	41.21388768763615	-42.30831463055441	5.181283786107085	64.24990078607125	1.121372312796636	0	0	0	53.86210827149232	-8.069762459340469	-15.31738909073346	71.68631916261469	1.251162298023131	0	0	0	0	0	0	2.442895615897517	-2.442895615897519	0.4489790240869478	14.20946580316879	89.55102100208681	0	0	2.442895615897517	-2.442895615897519	0.4489790240869478	14.20946580316879	89.55102100123591	0	0
0.12	19.30599553486335	7.299354275993251	29.75801272222874	0	0.9399999999999999	0	41.28667855705159	-42.39081498864893	5.242869905086573	64.28367313513341	1.121961751483904	0	0	0	53.88350863777246	-8.068432920392743	-15.25216770413394	71.66964180385594	1.250871223202254	0	0	0	0	0	0	2.574708289373246	-2.574708289373247	0.474493534631676	15.00639796619362	89.52550649306335	0	0	2.574708289373246	-2.574708289373247	0.474493534631676	15.00639796619362	89.5255064922172	0	0
0.14	19.30733544009802	7.278348129072457	29.75571984807045	0	0.9399999999999999	0	41.29865578217304	-42.33662556297331	5.286033059697827	64.23913368861696	1.121184391495176	0	0	0	53.95325903333784	-8.174039300343821	-15.41510916216683	71.86174570479777	1.254224068779614	0	0	0	0	0	0	2.581975204502748	-2.581975204502749	0.4759056068002726	15.05381006233515	89.52409442097901	0	0	2.581975204502748	-2.581975204502749	0.4759056068002726	15.05381006233515	89.52409442013321	0	0
0.16	19.3439495720063	7.308522668505352	29.77081946934381	0	0.9399999999999999	0	41.04954760861714	-42.3228998543261	5.483839011649582	63.88857939282463	1.11506606482659	0	0	0	53.96755044117575	-8.158692266976841	-15.49967114103417	71.9361627233226	1.25552289077239	0	0	0	0	0	0	2.58911494030977	-2.589114940309771	0.4772911510740833	15.1000916217699	89.52270887678786	0	0	2.58911494030977	-2.589114940309771	0.4772911510740833	15.1000916217699	89.52270887594239	0	0
